0
SECTION
2
HEADER
9
$INSUNITS
70
1
9
$ACADVER
1
AC1014
9
$HANDSEED
5
FFFF
0
ENDSEC
0
SECTION
2
TABLES
0
TABLE
2
VPORT
5
8
100
AcDbSymbolTable
0
ENDTAB
0
TABLE
2
LTYPE
5
5
100
AcDbSymbolTable
0
LTYPE
5
14
100
AcDbSymbolTableRecord
100
AcDbLinetypeTableRecord
2
BYBLOCK
70
0
0
LTYPE
5
15
100
AcDbSymbolTableRecord
100
AcDbLinetypeTableRecord
2
BYLAYER
70
0
0
LTYPE
5
16
100
AcDbSymbolTableRecord
100
AcDbLinetypeTableRecord
2
DASHED
70
0
3
Dashed __ __ __ __ __ __ __ __ __ __ __ __ __ _
72
65
73
2
40
0.75
49
0.5
74
0
49
-0.25
74
0
0
ENDTAB
0
TABLE
2
LAYER
5
2
100
AcDbSymbolTable
70
2
0
LAYER
5
50
100
AcDbSymbolTableRecord
100
AcDbLayerTableRecord
2
0
70
0
62
7
6
CONTINUOUS
0
ENDTAB
0
TABLE
2
STYLE
5
3
100
AcDbSymbolTable
70
1
0
STYLE
5
11
100
AcDbSymbolTableRecord
100
AcDbTextStyleTableRecord
2
STANDARD
70
0
0
ENDTAB
0
TABLE
2
VIEW
5
6
100
AcDbSymbolTable
70
0
0
ENDTAB
0
TABLE
2
UCS
5
7
100
AcDbSymbolTable
70
0
0
ENDTAB
0
TABLE
2
APPID
5
9
100
AcDbSymbolTable
70
2
0
APPID
5
12
100
AcDbSymbolTableRecord
100
AcDbRegAppTableRecord
2
ACAD
70
0
0
ENDTAB
0
TABLE
2
DIMSTYLE
5
A
100
AcDbSymbolTable
70
1
0
ENDTAB
0
TABLE
2
BLOCK_RECORD
5
1
100
AcDbSymbolTable
70
1
0
BLOCK_RECORD
5
1F
100
AcDbSymbolTableRecord
100
AcDbBlockTableRecord
2
*MODEL_SPACE
0
BLOCK_RECORD
5
1B
100
AcDbSymbolTableRecord
100
AcDbBlockTableRecord
2
*PAPER_SPACE
0
ENDTAB
0
ENDSEC
0
SECTION
2
BLOCKS
0
BLOCK
5
20
100
AcDbEntity
100
AcDbBlockBegin
2
*MODEL_SPACE
0
ENDBLK
5
21
100
AcDbEntity
100
AcDbBlockEnd
0
BLOCK
5
1C
100
AcDbEntity
100
AcDbBlockBegin
2
*PAPER_SPACE
0
ENDBLK
5
1D
100
AcDbEntity
100
AcDbBlockEnd
0
ENDSEC
0
SECTION
2
ENTITIES
0
POINT
5
100
100
AcDbEntity
8
0
100
AcDbPoint
10
0
20
0
30
0
0
CIRCLE
5
101
100
AcDbEntity
8
0
100
AcDbCircle
10
7.2436223067636574
20
3.3046458086629547
30
0
40
0.096456692913385822
210
-0
220
0
230
1
0
CIRCLE
5
102
100
AcDbEntity
8
0
100
AcDbCircle
10
7.2436223067636574
20
2.359763918899175
30
0
40
0.096456692913385822
210
-0
220
0
230
1
0
LWPOLYLINE
5
103
100
AcDbEntity
8
0
100
AcDbPolyline
90
8
70
1
43
0.0
10
7.5979530154250741
20
2.9896851787416954
10
7.5979530154250741
20
2.7069418399186138
10
7.5979530154250741
20
2.0448032889779157
10
6.8892915981022398
20
2.0448032889779157
10
6.8892915981022398
20
2.7069418399186138
10
6.8892915981022398
20
2.9896851787416954
10
6.8892915981022398
20
3.6196064385842148
10
7.5979530154250741
20
3.6196064385842148
0
CIRCLE
5
104
100
AcDbEntity
8
0
100
AcDbCircle
10
6.2849606491449306
20
3.3046458086629547
30
0
40
0.096456692913385822
210
-0
220
0
230
1
0
CIRCLE
5
105
100
AcDbEntity
8
0
100
AcDbCircle
10
6.2849606491449306
20
2.359763918899175
30
0
40
0.096456692913385822
210
-0
220
0
230
1
0
LWPOLYLINE
5
106
100
AcDbEntity
8
0
100
AcDbPolyline
90
8
70
1
43
0.0
10
6.6392913578063482
20
2.9896851787416954
10
6.6392913578063482
20
2.7069418399186138
10
6.6392913578063482
20
2.0448032889779157
10
5.930629940483513
20
2.0448032889779157
10
5.930629940483513
20
2.7069418399186138
10
5.930629940483513
20
2.9896851787416954
10
5.930629940483513
20
3.6196064385842148
10
6.6392913578063482
20
3.6196064385842148
0
CIRCLE
5
107
100
AcDbEntity
8
0
100
AcDbCircle
10
7.2436223067636591
20
1.4798427191306285
30
0
40
0.096456692913385822
210
-0
220
0
230
1
0
CIRCLE
5
108
100
AcDbEntity
8
0
100
AcDbCircle
10
7.2436223067636591
20
0.53496082936684886
30
0
40
0.096456692913385822
210
-0
220
0
230
1
0
LWPOLYLINE
5
109
100
AcDbEntity
8
0
100
AcDbPolyline
90
8
70
1
43
0.0
10
7.5979530154250758
20
1.1648820892093688
10
7.5979530154250758
20
0.88213875038628731
10
7.5979530154250758
20
0.22000019944558888
10
6.8892915981022407
20
0.22000019944558888
10
6.8892915981022407
20
0.88213875038628731
10
6.8892915981022407
20
1.1648820892093688
10
6.8892915981022407
20
1.7948033490518882
10
7.5979530154250758
20
1.7948033490518882
0
CIRCLE
5
110
100
AcDbEntity
8
0
100
AcDbCircle
10
6.2849606491449306
20
1.4798427191306285
30
0
40
0.096456692913385822
210
-0
220
0
230
1
0
CIRCLE
5
111
100
AcDbEntity
8
0
100
AcDbCircle
10
6.2849606491449306
20
0.53496082936684886
30
0
40
0.096456692913385822
210
-0
220
0
230
1
0
LWPOLYLINE
5
112
100
AcDbEntity
8
0
100
AcDbPolyline
90
8
70
1
43
0.0
10
6.6392913578063482
20
1.1648820892093688
10
6.6392913578063482
20
0.88213875038628731
10
6.6392913578063482
20
0.22000019944558888
10
5.930629940483513
20
0.22000019944558888
10
5.930629940483513
20
0.88213875038628731
10
5.930629940483513
20
1.1648820892093688
10
5.930629940483513
20
1.7948033490518882
10
6.6392913578063482
20
1.7948033490518882
0
CIRCLE
5
113
100
AcDbEntity
8
0
100
AcDbCircle
10
5.3262989915262056
20
0.53496066040880086
30
0
40
0.096456692913385822
210
0
220
0
230
1
0
CIRCLE
5
114
100
AcDbEntity
8
0
100
AcDbCircle
10
5.3262989915262056
20
1.4798425501725807
30
0
40
0.096456692913385822
210
0
220
0
230
1
0
LWPOLYLINE
5
115
100
AcDbEntity
8
0
100
AcDbPolyline
90
8
70
1
43
0.0
10
4.971968282864788
20
0.8499212903300607
10
4.971968282864788
20
1.1326646291531421
10
4.971968282864788
20
1.7948031800938404
10
5.6806297001876231
20
1.7948031800938404
10
5.6806297001876231
20
1.1326646291531419
10
5.6806297001876231
20
0.84992129033006047
10
5.6806297001876231
20
0.22000003048754108
10
4.971968282864788
20
0.22000003048754116
0
CIRCLE
5
116
100
AcDbEntity
8
0
100
AcDbCircle
10
3.2259053508127757
20
0.84992115891824571
30
0
40
0.15748031496063006
210
0
220
0
230
1
0
CIRCLE
5
117
100
AcDbEntity
8
0
100
AcDbCircle
10
4.092047083096241
20
0.84992115891824571
30
0
40
0.15748031496062986
210
0
220
0
230
1
0
CIRCLE
5
118
100
AcDbEntity
8
0
100
AcDbCircle
10
4.092047083096241
20
2.3459841510442296
30
0
40
0.15748031496062986
210
0
220
0
230
1
0
CIRCLE
5
119
100
AcDbEntity
8
0
100
AcDbCircle
10
3.2259053508127757
20
2.3459841510442296
30
0
40
0.15748031496063006
210
0
220
0
230
1
0
LWPOLYLINE
5
120
100
AcDbEntity
8
0
100
AcDbPolyline
90
8
70
1
43
0.0
10
2.5959840909702563
20
1.4157402605399338
10
2.5959840909702563
20
0.21999989907572656
10
4.7219683429387604
20
0.21999989907572656
10
4.7219683429387604
20
1.4157402605399338
10
4.7219683429387604
20
1.5979526344481414
10
4.7219683429387604
20
2.9759054108867491
10
2.5959840909702563
20
2.9759054108867491
10
2.5959840909702563
20
1.5979526344481414
0
CIRCLE
5
121
100
AcDbEntity
8
0
100
AcDbCircle
10
0.84992115891824604
20
0.84992115891824571
30
0
40
0.15748031496063006
210
0
220
0
230
1
0
CIRCLE
5
122
100
AcDbEntity
8
0
100
AcDbCircle
10
1.7160628912017111
20
0.84992115891824571
30
0
40
0.15748031496062986
210
0
220
0
230
1
0
CIRCLE
5
123
100
AcDbEntity
8
0
100
AcDbCircle
10
1.7160628912017111
20
2.3459841510442296
30
0
40
0.15748031496062986
210
0
220
0
230
1
0
CIRCLE
5
124
100
AcDbEntity
8
0
100
AcDbCircle
10
0.84992115891824604
20
2.3459841510442296
30
0
40
0.15748031496063006
210
0
220
0
230
1
0
LWPOLYLINE
5
125
100
AcDbEntity
8
0
100
AcDbPolyline
90
8
70
1
43
0.0
10
0.21999989907572656
20
1.4157402605399338
10
0.21999989907572656
20
0.21999989907572656
10
2.3459841510442305
20
0.21999989907572656
10
2.3459841510442305
20
1.4157402605399338
10
2.3459841510442305
20
1.5979526344481414
10
2.3459841510442305
20
2.9759054108867491
10
0.21999989907572656
20
2.9759054108867491
10
0.21999989907572656
20
1.5979526344481414
0
CIRCLE
5
126
100
AcDbEntity
8
0
100
AcDbCircle
10
5.3262989915262056
20
3.3046458086629547
30
0
40
0.096456692913385822
210
0
220
0
230
1
0
CIRCLE
5
127
100
AcDbEntity
8
0
100
AcDbCircle
10
5.3262989915262056
20
2.359763918899175
30
0
40
0.096456692913385822
210
0
220
0
230
1
0
LWPOLYLINE
5
128
100
AcDbEntity
8
0
100
AcDbPolyline
90
8
70
1
43
0.0
10
5.6806297001876231
20
2.9896851787416954
10
5.6806297001876231
20
2.7069418399186138
10
5.6806297001876231
20
2.0448032889779157
10
4.971968282864788
20
2.0448032889779157
10
4.971968282864788
20
2.7069418399186138
10
4.971968282864788
20
2.9896851787416954
10
4.971968282864788
20
3.6196064385842148
10
5.6806297001876231
20
3.6196064385842148
0
LINE
5
129
100
AcDbEntity
8
0
100
AcDbLine
10
0
20
0
30
0
11
8.000000255314383
21
0
31
0
0
LINE
5
130
100
AcDbEntity
8
0
100
AcDbLine
10
8.000000255314383
20
0
30
0
11
8.000000255314383
21
4.0000001276571915
31
0
0
ENDSEC
0
SECTION
2
OBJECTS
0
DICTIONARY
5
C
100
AcDbDictionary
3
ACAD_GROUP
350
D
3
ACAD_MLINESTYLE
350
17
0
DICTIONARY
5
D
100
AcDbDictionary
0
DICTIONARY
5
1A
330
C
100
AcDbDictionary
0
DICTIONARY
5
17
100
AcDbDictionary
0
ENDSEC
0
EOF
