0
SECTION
2
HEADER
9
$INSUNITS
70
1
9
$ACADVER
1
AC1014
9
$HANDSEED
5
FFFF
0
ENDSEC
0
SECTION
2
TABLES
0
TABLE
2
VPORT
5
8
100
AcDbSymbolTable
0
ENDTAB
0
TABLE
2
LTYPE
5
5
100
AcDbSymbolTable
0
LTYPE
5
14
100
AcDbSymbolTableRecord
100
AcDbLinetypeTableRecord
2
BYBLOCK
70
0
0
LTYPE
5
15
100
AcDbSymbolTableRecord
100
AcDbLinetypeTableRecord
2
BYLAYER
70
0
0
LTYPE
5
16
100
AcDbSymbolTableRecord
100
AcDbLinetypeTableRecord
2
DASHED
70
0
3
Dashed __ __ __ __ __ __ __ __ __ __ __ __ __ _
72
65
73
2
40
0.75
49
0.5
74
0
49
-0.25
74
0
0
ENDTAB
0
TABLE
2
LAYER
5
2
100
AcDbSymbolTable
70
2
0
LAYER
5
50
100
AcDbSymbolTableRecord
100
AcDbLayerTableRecord
2
0
70
0
62
7
6
CONTINUOUS
0
ENDTAB
0
TABLE
2
STYLE
5
3
100
AcDbSymbolTable
70
1
0
STYLE
5
11
100
AcDbSymbolTableRecord
100
AcDbTextStyleTableRecord
2
STANDARD
70
0
0
ENDTAB
0
TABLE
2
VIEW
5
6
100
AcDbSymbolTable
70
0
0
ENDTAB
0
TABLE
2
UCS
5
7
100
AcDbSymbolTable
70
0
0
ENDTAB
0
TABLE
2
APPID
5
9
100
AcDbSymbolTable
70
2
0
APPID
5
12
100
AcDbSymbolTableRecord
100
AcDbRegAppTableRecord
2
ACAD
70
0
0
ENDTAB
0
TABLE
2
DIMSTYLE
5
A
100
AcDbSymbolTable
70
1
0
ENDTAB
0
TABLE
2
BLOCK_RECORD
5
1
100
AcDbSymbolTable
70
1
0
BLOCK_RECORD
5
1F
100
AcDbSymbolTableRecord
100
AcDbBlockTableRecord
2
*MODEL_SPACE
0
BLOCK_RECORD
5
1B
100
AcDbSymbolTableRecord
100
AcDbBlockTableRecord
2
*PAPER_SPACE
0
ENDTAB
0
ENDSEC
0
SECTION
2
BLOCKS
0
BLOCK
5
20
100
AcDbEntity
100
AcDbBlockBegin
2
*MODEL_SPACE
0
ENDBLK
5
21
100
AcDbEntity
100
AcDbBlockEnd
0
BLOCK
5
1C
100
AcDbEntity
100
AcDbBlockBegin
2
*PAPER_SPACE
0
ENDBLK
5
1D
100
AcDbEntity
100
AcDbBlockEnd
0
ENDSEC
0
SECTION
2
ENTITIES
0
LWPOLYLINE
5
100
100
AcDbEntity
8
0
100
AcDbPolyline
90
6
70
1
43
0.0
10
-15.873937779607253
20
2.7889377798363442
10
1.9325227728886853
20
2.7889377798363442
10
1.816102578169251
20
2.9635680719154949
42
0.2507648909333125
10
0.24372406918436279
20
3.8050795121198107
10
-13.38605801075501
20
3.8050795121198107
10
-15.87088930060213
20
2.8011425042457927
0
CIRCLE
5
101
100
AcDbEntity
8
0
100
AcDbCircle
10
-0.12285780453913768
20
3.3031110081828028
30
0
40
0.12795275590551181
210
0
220
0
230
1
0
CIRCLE
5
102
100
AcDbEntity
8
0
100
AcDbCircle
10
-2.6425428439092165
20
3.303111008182805
30
0
40
0.12795275590551211
210
0
220
0
230
1
0
CIRCLE
5
103
100
AcDbEntity
8
0
100
AcDbCircle
10
-5.1622278832792947
20
3.3031110081828041
30
0
40
0.12795275590551211
210
0
220
0
230
1
0
CIRCLE
5
104
100
AcDbEntity
8
0
100
AcDbCircle
10
-7.6819129226493743
20
3.3031110081828037
30
0
40
0.12795275590551211
210
0
220
0
230
1
0
CIRCLE
5
105
100
AcDbEntity
8
0
100
AcDbCircle
10
-10.201597962019452
20
3.3031110081828028
30
0
40
0.12795275590550984
210
0
220
0
230
1
0
CIRCLE
5
106
100
AcDbEntity
8
0
100
AcDbCircle
10
-12.721283001389532
20
3.3031110081828015
30
0
40
0.12795275590550984
210
0
220
0
230
1
0
CIRCLE
5
107
100
AcDbEntity
8
0
100
AcDbCircle
10
-4.2567160722556734
20
3.3031110081828019
30
0
40
0.078740157480314821
210
0
220
0
230
1
0
CIRCLE
5
108
100
AcDbEntity
8
0
100
AcDbCircle
10
-7.3275822139879558
20
3.3031110081828015
30
0
40
0.075787401574803639
210
0
220
0
230
1
0
CIRCLE
5
109
100
AcDbEntity
8
0
100
AcDbCircle
10
-6.7764011116257503
20
3.3031110081828015
30
0
40
0.075787401574803792
210
0
220
0
230
1
0
CIRCLE
5
110
100
AcDbEntity
8
0
100
AcDbCircle
10
-9.8472672533580337
20
3.3031110081828015
30
0
40
0.075787401574803792
210
0
220
0
230
1
0
CIRCLE
5
111
100
AcDbEntity
8
0
100
AcDbCircle
10
-1.7370312332265014
20
3.3026086159618848
30
0
40
0.078740157480315084
210
0
220
0
230
1
0
CIRCLE
5
112
100
AcDbEntity
8
0
100
AcDbCircle
10
0.23147290412227958
20
3.3026086159618848
30
0
40
0.075787401574803084
210
0
220
0
230
1
0
CIRCLE
5
113
100
AcDbEntity
8
0
100
AcDbCircle
10
0.78265400648448435
20
3.3026086159618848
30
0
40
0.078740157480315084
210
0
220
0
230
1
0
CIRCLE
5
114
100
AcDbEntity
8
0
100
AcDbCircle
10
-4.807897174617878
20
3.3031110081828019
30
0
40
0.075787401574803098
210
0
220
0
230
1
0
CIRCLE
5
115
100
AcDbEntity
8
0
100
AcDbCircle
10
-11.815771190365908
20
3.3031110081828015
30
0
40
0.075787401574803639
210
0
220
0
230
1
0
CIRCLE
5
116
100
AcDbEntity
8
0
100
AcDbCircle
10
-12.366952292728113
20
3.3031110081828015
30
0
40
0.075787401574803639
210
0
220
0
230
1
0
CIRCLE
5
117
100
AcDbEntity
8
0
100
AcDbCircle
10
-9.2960861509958299
20
3.3031110081828015
30
0
40
0.075787401574803792
210
0
220
0
230
1
0
CIRCLE
5
118
100
AcDbEntity
8
0
100
AcDbCircle
10
-2.2882123355887063
20
3.3026086159618848
30
0
40
0.075787401574803098
210
0
220
0
230
1
0
CIRCLE
5
119
100
AcDbEntity
8
0
100
AcDbCircle
10
-4.2567160722556734
20
3.3031110081828019
30
0
40
0.078740157480314821
210
-0
220
0
230
1
0
CIRCLE
5
120
100
AcDbEntity
8
0
100
AcDbCircle
10
-7.3275822139879558
20
3.3031110081828015
30
0
40
0.075787401574803639
210
-0
220
0
230
1
0
CIRCLE
5
121
100
AcDbEntity
8
0
100
AcDbCircle
10
-6.7764011116257503
20
3.3031110081828015
30
0
40
0.075787401574803792
210
-0
220
0
230
1
0
CIRCLE
5
122
100
AcDbEntity
8
0
100
AcDbCircle
10
-9.8472672533580337
20
3.3031110081828015
30
0
40
0.075787401574803792
210
-0
220
0
230
1
0
CIRCLE
5
123
100
AcDbEntity
8
0
100
AcDbCircle
10
-1.7370312332265014
20
3.3026086159618848
30
0
40
0.078740157480315084
210
-0
220
0
230
1
0
CIRCLE
5
124
100
AcDbEntity
8
0
100
AcDbCircle
10
-4.807897174617878
20
3.3031110081828019
30
0
40
0.075787401574803112
210
-0
220
0
230
1
0
CIRCLE
5
125
100
AcDbEntity
8
0
100
AcDbCircle
10
-11.815771190365908
20
3.3031110081828015
30
0
40
0.075787401574803639
210
-0
220
0
230
1
0
CIRCLE
5
126
100
AcDbEntity
8
0
100
AcDbCircle
10
-12.366952292728113
20
3.3031110081828015
30
0
40
0.075787401574803639
210
-0
220
0
230
1
0
CIRCLE
5
127
100
AcDbEntity
8
0
100
AcDbCircle
10
-9.2960861509958299
20
3.3031110081828015
30
0
40
0.075787401574803792
210
-0
220
0
230
1
0
CIRCLE
5
128
100
AcDbEntity
8
0
100
AcDbCircle
10
-2.2882123355887063
20
3.3026086159618848
30
0
40
0.075787401574803112
210
-0
220
0
230
1
0
CIRCLE
5
129
100
AcDbEntity
8
0
100
AcDbCircle
10
-0.12285780453913768
20
3.3031110081828028
30
0
40
0.12795275590551181
210
0
220
0
230
1
0
CIRCLE
5
130
100
AcDbEntity
8
0
100
AcDbCircle
10
-2.6425428439092165
20
3.303111008182805
30
0
40
0.12795275590551211
210
0
220
0
230
1
0
CIRCLE
5
131
100
AcDbEntity
8
0
100
AcDbCircle
10
-5.1622278832792947
20
3.3031110081828041
30
0
40
0.12795275590551211
210
0
220
0
230
1
0
CIRCLE
5
132
100
AcDbEntity
8
0
100
AcDbCircle
10
-7.6819129226493743
20
3.3031110081828037
30
0
40
0.12795275590551211
210
0
220
0
230
1
0
CIRCLE
5
133
100
AcDbEntity
8
0
100
AcDbCircle
10
-10.201597962019452
20
3.3031110081828028
30
0
40
0.12795275590550984
210
0
220
0
230
1
0
CIRCLE
5
134
100
AcDbEntity
8
0
100
AcDbCircle
10
-12.721283001389532
20
3.3031110081828015
30
0
40
0.12795275590550984
210
0
220
0
230
1
0
LWPOLYLINE
5
135
100
AcDbEntity
8
0
100
AcDbPolyline
90
6
70
1
43
0.0
10
-15.873937779607253
20
2.7889377798363442
10
-15.87088930060213
20
2.8011425042457927
10
-13.38605801075501
20
3.8050795121198093
10
0.24372406918436226
20
3.8050795121198115
42
-0.25076489093331239
10
1.8161025781692712
20
2.9635680719155095
10
1.9325227728887042
20
2.7889377798363575
0
CIRCLE
5
136
100
AcDbEntity
8
0
100
AcDbCircle
10
0.23147290412227958
20
3.3026086159618848
30
0
40
0.075787401574803084
210
-0
220
0
230
1
0
CIRCLE
5
137
100
AcDbEntity
8
0
100
AcDbCircle
10
0.78265400648448435
20
3.3026086159618848
30
0
40
0.078740157480315084
210
-0
220
0
230
1
0
ENDSEC
0
SECTION
2
OBJECTS
0
DICTIONARY
5
C
100
AcDbDictionary
3
ACAD_GROUP
350
D
3
ACAD_MLINESTYLE
350
17
0
DICTIONARY
5
D
100
AcDbDictionary
0
DICTIONARY
5
1A
330
C
100
AcDbDictionary
0
DICTIONARY
5
17
100
AcDbDictionary
0
ENDSEC
0
EOF
