0
SECTION
2
HEADER
9
$INSUNITS
70
1
9
$ACADVER
1
AC1014
9
$HANDSEED
5
FFFF
0
ENDSEC
0
SECTION
2
TABLES
0
TABLE
2
VPORT
5
8
100
AcDbSymbolTable
0
ENDTAB
0
TABLE
2
LTYPE
5
5
100
AcDbSymbolTable
0
LTYPE
5
14
100
AcDbSymbolTableRecord
100
AcDbLinetypeTableRecord
2
BYBLOCK
70
0
0
LTYPE
5
15
100
AcDbSymbolTableRecord
100
AcDbLinetypeTableRecord
2
BYLAYER
70
0
0
LTYPE
5
16
100
AcDbSymbolTableRecord
100
AcDbLinetypeTableRecord
2
DASHED
70
0
3
Dashed __ __ __ __ __ __ __ __ __ __ __ __ __ _
72
65
73
2
40
0.75
49
0.5
74
0
49
-0.25
74
0
0
ENDTAB
0
TABLE
2
LAYER
5
2
100
AcDbSymbolTable
70
2
0
LAYER
5
50
100
AcDbSymbolTableRecord
100
AcDbLayerTableRecord
2
0
70
0
62
7
6
CONTINUOUS
0
ENDTAB
0
TABLE
2
STYLE
5
3
100
AcDbSymbolTable
70
1
0
STYLE
5
11
100
AcDbSymbolTableRecord
100
AcDbTextStyleTableRecord
2
STANDARD
70
0
0
ENDTAB
0
TABLE
2
VIEW
5
6
100
AcDbSymbolTable
70
0
0
ENDTAB
0
TABLE
2
UCS
5
7
100
AcDbSymbolTable
70
0
0
ENDTAB
0
TABLE
2
APPID
5
9
100
AcDbSymbolTable
70
2
0
APPID
5
12
100
AcDbSymbolTableRecord
100
AcDbRegAppTableRecord
2
ACAD
70
0
0
ENDTAB
0
TABLE
2
DIMSTYLE
5
A
100
AcDbSymbolTable
70
1
0
ENDTAB
0
TABLE
2
BLOCK_RECORD
5
1
100
AcDbSymbolTable
70
1
0
BLOCK_RECORD
5
1F
100
AcDbSymbolTableRecord
100
AcDbBlockTableRecord
2
*MODEL_SPACE
0
BLOCK_RECORD
5
1B
100
AcDbSymbolTableRecord
100
AcDbBlockTableRecord
2
*PAPER_SPACE
0
ENDTAB
0
ENDSEC
0
SECTION
2
BLOCKS
0
BLOCK
5
20
100
AcDbEntity
100
AcDbBlockBegin
2
*MODEL_SPACE
0
ENDBLK
5
21
100
AcDbEntity
100
AcDbBlockEnd
0
BLOCK
5
1C
100
AcDbEntity
100
AcDbBlockBegin
2
*PAPER_SPACE
0
ENDBLK
5
1D
100
AcDbEntity
100
AcDbBlockEnd
0
ENDSEC
0
SECTION
2
ENTITIES
0
LWPOLYLINE
5
100
100
AcDbEntity
8
0
100
AcDbPolyline
90
20
70
1
43
0.0
10
0.69881889762800431
20
-3.2960201215257285
10
0.46259842519663508
20
-3.2960201215257285
42
-0.41421356237311646
10
0.068897637795060723
20
-2.9023193341241238
10
0.068897637795260869
20
-0.23570316059782281
42
-0.13165249758741376
10
0.074172228197449772
20
-0.21601812122774172
10
0.23866841836577776
20
0.068897637795264796
42
1.5254583498134275
10
0.11311913916562857
20
0.083186507223794018
42
-0.20806454790760909
10
0.1095676705843376
20
0.05198149672850523
10
0.034095488337971609
20
-0.078740157480275769
42
-0.57735026918960186
10
-0.034095488337967002
20
-0.07874015748027309
10
-0.10956767058430826
20
0.051981496728488612
42
-0.20806454790759532
10
-0.11311913916559752
20
0.083186507223775588
42
1.5254583498133809
10
-0.23866841836575045
20
0.068897637795251709
10
-0.074172228197492224
20
-0.21601812122768935
42
-0.1316524975874149
10
-0.068897637795304584
20
-0.23570316059777091
10
-0.068897637795505257
20
-2.9023193341241833
42
-0.41421356237307433
10
-0.46259842519708022
20
-3.2960201215257285
10
-0.69881889764759875
20
-3.2960201215257285
10
-0.69881889764759875
20
-3.5716106727068322
10
0.69881889762800453
20
-3.5716106727068313
0
CIRCLE
5
101
100
AcDbEntity
8
0
100
AcDbCircle
10
0.54133858266737445
20
-3.4338153971162804
30
0
40
0.075787401574803098
210
0
220
0
230
1
0
CIRCLE
5
102
100
AcDbEntity
8
0
100
AcDbCircle
10
-0.54133858268696899
20
-3.4338153971162804
30
0
40
0.075787401574803098
210
0
220
0
230
1
0
CIRCLE
5
103
100
AcDbEntity
8
0
100
AcDbCircle
10
-0.54133858268696899
20
-3.4338153971162804
30
0
40
0.075787401574803112
210
0
220
0
230
1
0
CIRCLE
5
104
100
AcDbEntity
8
0
100
AcDbCircle
10
0.54133858266737445
20
-3.4338153971162804
30
0
40
0.075787401574803112
210
0
220
0
230
1
0
LWPOLYLINE
5
105
100
AcDbEntity
8
0
100
AcDbPolyline
90
20
70
1
43
0.0
10
0.69881889762800431
20
-3.2960201215257285
10
0.46259842519663508
20
-3.2960201215257285
42
-0.41421356237311657
10
0.068897637795060723
20
-2.9023193341241238
10
0.068897637795260869
20
-0.23570316059782287
42
-0.1316524975874149
10
0.074172228197449772
20
-0.21601812122774172
10
0.23866841836577776
20
0.068897637795264796
42
1.5254583498134271
10
0.11311913916562855
20
0.083186507223794046
42
-0.20806454790760934
10
0.1095676705843376
20
0.051981496728505223
10
0.034095488337971602
20
-0.078740157480275769
42
-0.57735026918960153
10
-0.034095488337967002
20
-0.078740157480273104
10
-0.10956767058430825
20
0.051981496728488612
42
-0.20806454790759649
10
-0.11311913916559754
20
0.083186507223775574
42
1.5254583498133809
10
-0.23866841836575045
20
0.068897637795251709
10
-0.074172228197492238
20
-0.21601812122768935
42
-0.13165249758741421
10
-0.068897637795304598
20
-0.23570316059777091
10
-0.068897637795504993
20
-2.9023193341241833
42
-0.41421356237307411
10
-0.46259842519708028
20
-3.2960201215257285
10
-0.69881889764759875
20
-3.2960201215257285
10
-0.69881889764759875
20
-3.57161067270683
10
0.69881889762800453
20
-3.5716106727068313
0
ENDSEC
0
SECTION
2
OBJECTS
0
DICTIONARY
5
C
100
AcDbDictionary
3
ACAD_GROUP
350
D
3
ACAD_MLINESTYLE
350
17
0
DICTIONARY
5
D
100
AcDbDictionary
0
DICTIONARY
5
1A
330
C
100
AcDbDictionary
0
DICTIONARY
5
17
100
AcDbDictionary
0
ENDSEC
0
EOF
