0
SECTION
2
HEADER
9
$INSUNITS
70
1
9
$ACADVER
1
AC1014
9
$HANDSEED
5
FFFF
0
ENDSEC
0
SECTION
2
TABLES
0
TABLE
2
VPORT
5
8
100
AcDbSymbolTable
0
ENDTAB
0
TABLE
2
LTYPE
5
5
100
AcDbSymbolTable
0
LTYPE
5
14
100
AcDbSymbolTableRecord
100
AcDbLinetypeTableRecord
2
BYBLOCK
70
0
0
LTYPE
5
15
100
AcDbSymbolTableRecord
100
AcDbLinetypeTableRecord
2
BYLAYER
70
0
0
LTYPE
5
16
100
AcDbSymbolTableRecord
100
AcDbLinetypeTableRecord
2
DASHED
70
0
3
Dashed __ __ __ __ __ __ __ __ __ __ __ __ __ _
72
65
73
2
40
0.75
49
0.5
74
0
49
-0.25
74
0
0
ENDTAB
0
TABLE
2
LAYER
5
2
100
AcDbSymbolTable
70
2
0
LAYER
5
50
100
AcDbSymbolTableRecord
100
AcDbLayerTableRecord
2
0
70
0
62
7
6
CONTINUOUS
0
ENDTAB
0
TABLE
2
STYLE
5
3
100
AcDbSymbolTable
70
1
0
STYLE
5
11
100
AcDbSymbolTableRecord
100
AcDbTextStyleTableRecord
2
STANDARD
70
0
0
ENDTAB
0
TABLE
2
VIEW
5
6
100
AcDbSymbolTable
70
0
0
ENDTAB
0
TABLE
2
UCS
5
7
100
AcDbSymbolTable
70
0
0
ENDTAB
0
TABLE
2
APPID
5
9
100
AcDbSymbolTable
70
2
0
APPID
5
12
100
AcDbSymbolTableRecord
100
AcDbRegAppTableRecord
2
ACAD
70
0
0
ENDTAB
0
TABLE
2
DIMSTYLE
5
A
100
AcDbSymbolTable
70
1
0
ENDTAB
0
TABLE
2
BLOCK_RECORD
5
1
100
AcDbSymbolTable
70
1
0
BLOCK_RECORD
5
1F
100
AcDbSymbolTableRecord
100
AcDbBlockTableRecord
2
*MODEL_SPACE
0
BLOCK_RECORD
5
1B
100
AcDbSymbolTableRecord
100
AcDbBlockTableRecord
2
*PAPER_SPACE
0
ENDTAB
0
ENDSEC
0
SECTION
2
BLOCKS
0
BLOCK
5
20
100
AcDbEntity
100
AcDbBlockBegin
2
*MODEL_SPACE
0
ENDBLK
5
21
100
AcDbEntity
100
AcDbBlockEnd
0
BLOCK
5
1C
100
AcDbEntity
100
AcDbBlockBegin
2
*PAPER_SPACE
0
ENDBLK
5
1D
100
AcDbEntity
100
AcDbBlockEnd
0
ENDSEC
0
SECTION
2
ENTITIES
0
LWPOLYLINE
5
100
100
AcDbEntity
8
0
100
AcDbPolyline
90
8
70
1
43
0.0
10
-1.6088595262255514
20
0.11811023622047426
42
0.41421356237309503
10
-1.5694894474853942
20
0.1574803149606312
10
-1.5694894474853947
20
11.01673228346457
42
0.41421356237309503
10
-1.6088595262255523
20
11.056102362204728
10
-22.700591809690117
20
11.056102362204724
42
0.41421356237309503
10
-22.739961888430273
20
11.016732283464565
10
-22.73996188843028
20
0.15748031496062934
42
0.41421356237309082
10
-22.700591809690124
20
0.11811023622047243
0
LWPOLYLINE
5
101
100
AcDbEntity
8
0
100
AcDbPolyline
90
4
70
1
43
0.0
10
-22.85807212465075
20
11.174212598425196
10
-1.4513792112649226
20
11.174212598425196
10
-1.4513792112649226
20
0
10
-22.85807212465075
20
0
0
LINE
5
102
100
AcDbEntity
8
0
100
AcDbLine
10
-18.921064250635002
20
-0.35433070866141309
30
0
11
-18.921064250635002
21
3.5404749997888847e-15
31
0
0
CIRCLE
5
103
100
AcDbEntity
8
0
100
AcDbCircle
10
-18.743898896304291
20
-0.17716535433070479
30
0
40
0.075787401574803709
210
0
220
-0
230
1
0
LINE
5
104
100
AcDbEntity
8
0
100
AcDbLine
10
-18.566733541973583
20
-0.35433070866141309
30
0
11
-18.921064250635002
21
-0.35433070866141309
31
0
0
LINE
5
105
100
AcDbEntity
8
0
100
AcDbLine
10
-18.566733541973583
20
3.5357353419306233e-15
30
0
11
-18.566733541973583
21
-0.35433070866141309
31
0
0
LINE
5
106
100
AcDbEntity
8
0
100
AcDbLine
10
-5.7427177939420879
20
-0.35433070866141636
30
0
11
-5.7427177939420879
21
7.4306265427667954e-16
31
0
0
LINE
5
107
100
AcDbEntity
8
0
100
AcDbLine
10
-5.3883870852806703
20
-0.35433070866141653
30
0
11
-5.7427177939420879
21
-0.35433070866141636
31
0
0
LINE
5
108
100
AcDbEntity
8
0
100
AcDbLine
10
-5.3883870852806703
20
7.2539177135196344e-16
30
0
11
-5.3883870852806703
21
-0.35433070866141653
31
0
0
LINE
5
109
100
AcDbEntity
8
0
100
AcDbLine
10
-5.7427177939420879
20
11.174212598425196
30
0
11
-5.7427177939420879
21
11.528543307086613
31
0
0
LINE
5
110
100
AcDbEntity
8
0
100
AcDbLine
10
-5.7427177939420879
20
11.528543307086613
30
0
11
-5.3883870852806703
21
11.528543307086613
31
0
0
LINE
5
111
100
AcDbEntity
8
0
100
AcDbLine
10
-5.3883870852806703
20
11.528543307086613
30
0
11
-5.3883870852806703
21
11.174212598425196
31
0
0
CIRCLE
5
112
100
AcDbEntity
8
0
100
AcDbCircle
10
-5.5655524396113787
20
11.351377952755904
30
0
40
0.075787401574803639
210
0
220
-0
230
1
0
CIRCLE
5
113
100
AcDbEntity
8
0
100
AcDbCircle
10
-5.5655524396113787
20
-0.17716535433070787
30
0
40
0.075787401574803709
210
0
220
-0
230
1
0
LINE
5
114
100
AcDbEntity
8
0
100
AcDbLine
10
-18.566733541973583
20
11.528543307086613
30
0
11
-18.566733541973583
21
11.1742125984252
31
0
0
LINE
5
115
100
AcDbEntity
8
0
100
AcDbLine
10
-18.921064250635002
20
11.528543307086613
30
0
11
-18.566733541973583
21
11.528543307086613
31
0
0
LINE
5
116
100
AcDbEntity
8
0
100
AcDbLine
10
-18.921064250635006
20
11.174212598425196
30
0
11
-18.921064250635002
21
11.528543307086613
31
0
0
CIRCLE
5
117
100
AcDbEntity
8
0
100
AcDbCircle
10
-18.743898896304291
20
11.351377952755904
30
0
40
0.075787401574803639
210
0
220
-0
230
1
0
ENDSEC
0
SECTION
2
OBJECTS
0
DICTIONARY
5
C
100
AcDbDictionary
3
ACAD_GROUP
350
D
3
ACAD_MLINESTYLE
350
17
0
DICTIONARY
5
D
100
AcDbDictionary
0
DICTIONARY
5
1A
330
C
100
AcDbDictionary
0
DICTIONARY
5
17
100
AcDbDictionary
0
ENDSEC
0
EOF
