ISO-10303-21;
HEADER;
/* Generated by software containing ST-Developer
 * from STEP Tools, Inc. (www.steptools.com) 
 */

FILE_DESCRIPTION(
/* description */ (''),
/* implementation_level */ '2;1');

FILE_NAME(
/* name */ 'Backplate_Big_Bracket.step',
/* time_stamp */ '2026-08-13T17:39:10-04:00',
/* author */ (''),
/* organization */ (''),
/* preprocessor_version */ 'ST-DEVELOPER v20.1',
/* originating_system */ 'Autodesk Translation Framework v15.8.0.0',
/* authorisation */ '');

FILE_SCHEMA (('AUTOMOTIVE_DESIGN { 1 0 10303 214 3 1 1 }'));
ENDSEC;

DATA;
#10=MECHANICAL_DESIGN_GEOMETRIC_PRESENTATION_REPRESENTATION('',(#13),#463);
#11=SHAPE_REPRESENTATION_RELATIONSHIP('SRR','None',#470,#12);
#12=ADVANCED_BREP_SHAPE_REPRESENTATION('',(#14),#462);
#13=STYLED_ITEM('',(#479),#14);
#14=MANIFOLD_SOLID_BREP('Body1',#283);
#15=FACE_BOUND('',#54,.T.);
#16=FACE_BOUND('',#57,.T.);
#17=FACE_BOUND('',#59,.T.);
#18=FACE_BOUND('',#62,.T.);
#19=FACE_BOUND('',#64,.T.);
#20=FACE_BOUND('',#66,.T.);
#21=PLANE('',#303);
#22=PLANE('',#304);
#23=PLANE('',#305);
#24=PLANE('',#306);
#25=PLANE('',#307);
#26=PLANE('',#308);
#27=PLANE('',#309);
#28=PLANE('',#310);
#29=PLANE('',#311);
#30=PLANE('',#312);
#31=PLANE('',#313);
#32=PLANE('',#314);
#33=FACE_OUTER_BOUND('',#47,.T.);
#34=FACE_OUTER_BOUND('',#48,.T.);
#35=FACE_OUTER_BOUND('',#49,.T.);
#36=FACE_OUTER_BOUND('',#50,.T.);
#37=FACE_OUTER_BOUND('',#51,.T.);
#38=FACE_OUTER_BOUND('',#52,.T.);
#39=FACE_OUTER_BOUND('',#53,.T.);
#40=FACE_OUTER_BOUND('',#55,.T.);
#41=FACE_OUTER_BOUND('',#56,.T.);
#42=FACE_OUTER_BOUND('',#58,.T.);
#43=FACE_OUTER_BOUND('',#60,.T.);
#44=FACE_OUTER_BOUND('',#61,.T.);
#45=FACE_OUTER_BOUND('',#63,.T.);
#46=FACE_OUTER_BOUND('',#65,.T.);
#47=EDGE_LOOP('',(#195,#196,#197,#198));
#48=EDGE_LOOP('',(#199,#200,#201,#202));
#49=EDGE_LOOP('',(#203,#204,#205,#206));
#50=EDGE_LOOP('',(#207,#208,#209,#210));
#51=EDGE_LOOP('',(#211,#212,#213,#214));
#52=EDGE_LOOP('',(#215,#216,#217,#218));
#53=EDGE_LOOP('',(#219,#220,#221,#222));
#54=EDGE_LOOP('',(#223));
#55=EDGE_LOOP('',(#224,#225,#226,#227));
#56=EDGE_LOOP('',(#228,#229,#230,#231));
#57=EDGE_LOOP('',(#232));
#58=EDGE_LOOP('',(#233,#234,#235,#236));
#59=EDGE_LOOP('',(#237));
#60=EDGE_LOOP('',(#238,#239,#240,#241));
#61=EDGE_LOOP('',(#242,#243,#244,#245));
#62=EDGE_LOOP('',(#246));
#63=EDGE_LOOP('',(#247,#248,#249,#250,#251,#252,#253));
#64=EDGE_LOOP('',(#254,#255,#256));
#65=EDGE_LOOP('',(#257,#258,#259,#260,#261,#262,#263));
#66=EDGE_LOOP('',(#264,#265,#266));
#67=LINE('',#390,#99);
#68=LINE('',#396,#100);
#69=LINE('',#401,#101);
#70=LINE('',#403,#102);
#71=LINE('',#405,#103);
#72=LINE('',#406,#104);
#73=LINE('',#409,#105);
#74=LINE('',#411,#106);
#75=LINE('',#412,#107);
#76=LINE('',#414,#108);
#77=LINE('',#415,#109);
#78=LINE('',#419,#110);
#79=LINE('',#421,#111);
#80=LINE('',#423,#112);
#81=LINE('',#424,#113);
#82=LINE('',#427,#114);
#83=LINE('',#429,#115);
#84=LINE('',#430,#116);
#85=LINE('',#433,#117);
#86=LINE('',#435,#118);
#87=LINE('',#436,#119);
#88=LINE('',#439,#120);
#89=LINE('',#441,#121);
#90=LINE('',#442,#122);
#91=LINE('',#445,#123);
#92=LINE('',#447,#124);
#93=LINE('',#448,#125);
#94=LINE('',#451,#126);
#95=LINE('',#453,#127);
#96=LINE('',#454,#128);
#97=LINE('',#456,#129);
#98=LINE('',#457,#130);
#99=VECTOR('',#321,2.1);
#100=VECTOR('',#328,2.1);
#101=VECTOR('',#333,10.);
#102=VECTOR('',#334,10.);
#103=VECTOR('',#335,10.);
#104=VECTOR('',#336,10.);
#105=VECTOR('',#339,10.);
#106=VECTOR('',#340,10.);
#107=VECTOR('',#341,10.);
#108=VECTOR('',#344,10.);
#109=VECTOR('',#345,10.);
#110=VECTOR('',#348,10.);
#111=VECTOR('',#349,10.);
#112=VECTOR('',#350,10.);
#113=VECTOR('',#351,10.);
#114=VECTOR('',#354,10.);
#115=VECTOR('',#355,10.);
#116=VECTOR('',#356,10.);
#117=VECTOR('',#359,10.);
#118=VECTOR('',#360,10.);
#119=VECTOR('',#361,10.);
#120=VECTOR('',#364,10.);
#121=VECTOR('',#365,10.);
#122=VECTOR('',#366,10.);
#123=VECTOR('',#369,10.);
#124=VECTOR('',#370,10.);
#125=VECTOR('',#371,10.);
#126=VECTOR('',#374,10.);
#127=VECTOR('',#375,10.);
#128=VECTOR('',#376,10.);
#129=VECTOR('',#379,10.);
#130=VECTOR('',#380,10.);
#131=CIRCLE('',#298,2.1);
#132=CIRCLE('',#299,2.1);
#133=CIRCLE('',#301,2.1);
#134=CIRCLE('',#302,2.1);
#135=VERTEX_POINT('',#387);
#136=VERTEX_POINT('',#389);
#137=VERTEX_POINT('',#393);
#138=VERTEX_POINT('',#395);
#139=VERTEX_POINT('',#399);
#140=VERTEX_POINT('',#400);
#141=VERTEX_POINT('',#402);
#142=VERTEX_POINT('',#404);
#143=VERTEX_POINT('',#408);
#144=VERTEX_POINT('',#410);
#145=VERTEX_POINT('',#417);
#146=VERTEX_POINT('',#418);
#147=VERTEX_POINT('',#420);
#148=VERTEX_POINT('',#422);
#149=VERTEX_POINT('',#426);
#150=VERTEX_POINT('',#428);
#151=VERTEX_POINT('',#432);
#152=VERTEX_POINT('',#434);
#153=VERTEX_POINT('',#438);
#154=VERTEX_POINT('',#440);
#155=VERTEX_POINT('',#444);
#156=VERTEX_POINT('',#446);
#157=VERTEX_POINT('',#450);
#158=VERTEX_POINT('',#452);
#159=EDGE_CURVE('',#135,#135,#131,.T.);
#160=EDGE_CURVE('',#135,#136,#67,.T.);
#161=EDGE_CURVE('',#136,#136,#132,.T.);
#162=EDGE_CURVE('',#137,#137,#133,.T.);
#163=EDGE_CURVE('',#137,#138,#68,.T.);
#164=EDGE_CURVE('',#138,#138,#134,.T.);
#165=EDGE_CURVE('',#139,#140,#69,.T.);
#166=EDGE_CURVE('',#140,#141,#70,.T.);
#167=EDGE_CURVE('',#142,#141,#71,.T.);
#168=EDGE_CURVE('',#139,#142,#72,.T.);
#169=EDGE_CURVE('',#143,#139,#73,.T.);
#170=EDGE_CURVE('',#144,#142,#74,.T.);
#171=EDGE_CURVE('',#143,#144,#75,.T.);
#172=EDGE_CURVE('',#140,#143,#76,.T.);
#173=EDGE_CURVE('',#141,#144,#77,.T.);
#174=EDGE_CURVE('',#145,#146,#78,.T.);
#175=EDGE_CURVE('',#145,#147,#79,.T.);
#176=EDGE_CURVE('',#148,#147,#80,.T.);
#177=EDGE_CURVE('',#146,#148,#81,.T.);
#178=EDGE_CURVE('',#146,#149,#82,.T.);
#179=EDGE_CURVE('',#150,#148,#83,.T.);
#180=EDGE_CURVE('',#149,#150,#84,.T.);
#181=EDGE_CURVE('',#149,#151,#85,.T.);
#182=EDGE_CURVE('',#152,#150,#86,.T.);
#183=EDGE_CURVE('',#151,#152,#87,.T.);
#184=EDGE_CURVE('',#151,#153,#88,.T.);
#185=EDGE_CURVE('',#154,#152,#89,.T.);
#186=EDGE_CURVE('',#153,#154,#90,.T.);
#187=EDGE_CURVE('',#155,#153,#91,.T.);
#188=EDGE_CURVE('',#156,#154,#92,.T.);
#189=EDGE_CURVE('',#155,#156,#93,.T.);
#190=EDGE_CURVE('',#157,#155,#94,.T.);
#191=EDGE_CURVE('',#158,#156,#95,.T.);
#192=EDGE_CURVE('',#157,#158,#96,.T.);
#193=EDGE_CURVE('',#145,#157,#97,.T.);
#194=EDGE_CURVE('',#147,#158,#98,.T.);
#195=ORIENTED_EDGE('',*,*,#159,.F.);
#196=ORIENTED_EDGE('',*,*,#160,.T.);
#197=ORIENTED_EDGE('',*,*,#161,.F.);
#198=ORIENTED_EDGE('',*,*,#160,.F.);
#199=ORIENTED_EDGE('',*,*,#162,.F.);
#200=ORIENTED_EDGE('',*,*,#163,.T.);
#201=ORIENTED_EDGE('',*,*,#164,.F.);
#202=ORIENTED_EDGE('',*,*,#163,.F.);
#203=ORIENTED_EDGE('',*,*,#165,.T.);
#204=ORIENTED_EDGE('',*,*,#166,.T.);
#205=ORIENTED_EDGE('',*,*,#167,.F.);
#206=ORIENTED_EDGE('',*,*,#168,.F.);
#207=ORIENTED_EDGE('',*,*,#169,.T.);
#208=ORIENTED_EDGE('',*,*,#168,.T.);
#209=ORIENTED_EDGE('',*,*,#170,.F.);
#210=ORIENTED_EDGE('',*,*,#171,.F.);
#211=ORIENTED_EDGE('',*,*,#172,.T.);
#212=ORIENTED_EDGE('',*,*,#171,.T.);
#213=ORIENTED_EDGE('',*,*,#173,.F.);
#214=ORIENTED_EDGE('',*,*,#166,.F.);
#215=ORIENTED_EDGE('',*,*,#174,.F.);
#216=ORIENTED_EDGE('',*,*,#175,.T.);
#217=ORIENTED_EDGE('',*,*,#176,.F.);
#218=ORIENTED_EDGE('',*,*,#177,.F.);
#219=ORIENTED_EDGE('',*,*,#178,.F.);
#220=ORIENTED_EDGE('',*,*,#177,.T.);
#221=ORIENTED_EDGE('',*,*,#179,.F.);
#222=ORIENTED_EDGE('',*,*,#180,.F.);
#223=ORIENTED_EDGE('',*,*,#162,.T.);
#224=ORIENTED_EDGE('',*,*,#181,.F.);
#225=ORIENTED_EDGE('',*,*,#180,.T.);
#226=ORIENTED_EDGE('',*,*,#182,.F.);
#227=ORIENTED_EDGE('',*,*,#183,.F.);
#228=ORIENTED_EDGE('',*,*,#184,.F.);
#229=ORIENTED_EDGE('',*,*,#183,.T.);
#230=ORIENTED_EDGE('',*,*,#185,.F.);
#231=ORIENTED_EDGE('',*,*,#186,.F.);
#232=ORIENTED_EDGE('',*,*,#164,.T.);
#233=ORIENTED_EDGE('',*,*,#187,.T.);
#234=ORIENTED_EDGE('',*,*,#186,.T.);
#235=ORIENTED_EDGE('',*,*,#188,.F.);
#236=ORIENTED_EDGE('',*,*,#189,.F.);
#237=ORIENTED_EDGE('',*,*,#161,.T.);
#238=ORIENTED_EDGE('',*,*,#190,.T.);
#239=ORIENTED_EDGE('',*,*,#189,.T.);
#240=ORIENTED_EDGE('',*,*,#191,.F.);
#241=ORIENTED_EDGE('',*,*,#192,.F.);
#242=ORIENTED_EDGE('',*,*,#193,.T.);
#243=ORIENTED_EDGE('',*,*,#192,.T.);
#244=ORIENTED_EDGE('',*,*,#194,.F.);
#245=ORIENTED_EDGE('',*,*,#175,.F.);
#246=ORIENTED_EDGE('',*,*,#159,.T.);
#247=ORIENTED_EDGE('',*,*,#194,.T.);
#248=ORIENTED_EDGE('',*,*,#191,.T.);
#249=ORIENTED_EDGE('',*,*,#188,.T.);
#250=ORIENTED_EDGE('',*,*,#185,.T.);
#251=ORIENTED_EDGE('',*,*,#182,.T.);
#252=ORIENTED_EDGE('',*,*,#179,.T.);
#253=ORIENTED_EDGE('',*,*,#176,.T.);
#254=ORIENTED_EDGE('',*,*,#173,.T.);
#255=ORIENTED_EDGE('',*,*,#170,.T.);
#256=ORIENTED_EDGE('',*,*,#167,.T.);
#257=ORIENTED_EDGE('',*,*,#193,.F.);
#258=ORIENTED_EDGE('',*,*,#174,.T.);
#259=ORIENTED_EDGE('',*,*,#178,.T.);
#260=ORIENTED_EDGE('',*,*,#181,.T.);
#261=ORIENTED_EDGE('',*,*,#184,.T.);
#262=ORIENTED_EDGE('',*,*,#187,.F.);
#263=ORIENTED_EDGE('',*,*,#190,.F.);
#264=ORIENTED_EDGE('',*,*,#172,.F.);
#265=ORIENTED_EDGE('',*,*,#165,.F.);
#266=ORIENTED_EDGE('',*,*,#169,.F.);
#267=CYLINDRICAL_SURFACE('',#297,2.1);
#268=CYLINDRICAL_SURFACE('',#300,2.1);
#269=ADVANCED_FACE('',(#33),#267,.F.);
#270=ADVANCED_FACE('',(#34),#268,.F.);
#271=ADVANCED_FACE('',(#35),#21,.T.);
#272=ADVANCED_FACE('',(#36),#22,.T.);
#273=ADVANCED_FACE('',(#37),#23,.T.);
#274=ADVANCED_FACE('',(#38),#24,.T.);
#275=ADVANCED_FACE('',(#39,#15),#25,.T.);
#276=ADVANCED_FACE('',(#40),#26,.T.);
#277=ADVANCED_FACE('',(#41,#16),#27,.T.);
#278=ADVANCED_FACE('',(#42,#17),#28,.T.);
#279=ADVANCED_FACE('',(#43),#29,.T.);
#280=ADVANCED_FACE('',(#44,#18),#30,.T.);
#281=ADVANCED_FACE('',(#45,#19),#31,.T.);
#282=ADVANCED_FACE('',(#46,#20),#32,.F.);
#283=CLOSED_SHELL('',(#269,#270,#271,#272,#273,#274,#275,#276,#277,#278,
#279,#280,#281,#282));
#284=DERIVED_UNIT_ELEMENT(#286,1.);
#285=DERIVED_UNIT_ELEMENT(#465,-3.);
#286=(
MASS_UNIT()
NAMED_UNIT(*)
SI_UNIT(.KILO.,.GRAM.)
);
#287=DERIVED_UNIT((#284,#285));
#288=MEASURE_REPRESENTATION_ITEM('density measure',
POSITIVE_RATIO_MEASURE(7850.),#287);
#289=PROPERTY_DEFINITION_REPRESENTATION(#294,#291);
#290=PROPERTY_DEFINITION_REPRESENTATION(#295,#292);
#291=REPRESENTATION('material name',(#293),#462);
#292=REPRESENTATION('density',(#288),#462);
#293=DESCRIPTIVE_REPRESENTATION_ITEM('Steel','Steel');
#294=PROPERTY_DEFINITION('material property','material name',#472);
#295=PROPERTY_DEFINITION('material property','density of part',#472);
#296=AXIS2_PLACEMENT_3D('',#385,#315,#316);
#297=AXIS2_PLACEMENT_3D('',#386,#317,#318);
#298=AXIS2_PLACEMENT_3D('',#388,#319,#320);
#299=AXIS2_PLACEMENT_3D('',#391,#322,#323);
#300=AXIS2_PLACEMENT_3D('',#392,#324,#325);
#301=AXIS2_PLACEMENT_3D('',#394,#326,#327);
#302=AXIS2_PLACEMENT_3D('',#397,#329,#330);
#303=AXIS2_PLACEMENT_3D('',#398,#331,#332);
#304=AXIS2_PLACEMENT_3D('',#407,#337,#338);
#305=AXIS2_PLACEMENT_3D('',#413,#342,#343);
#306=AXIS2_PLACEMENT_3D('',#416,#346,#347);
#307=AXIS2_PLACEMENT_3D('',#425,#352,#353);
#308=AXIS2_PLACEMENT_3D('',#431,#357,#358);
#309=AXIS2_PLACEMENT_3D('',#437,#362,#363);
#310=AXIS2_PLACEMENT_3D('',#443,#367,#368);
#311=AXIS2_PLACEMENT_3D('',#449,#372,#373);
#312=AXIS2_PLACEMENT_3D('',#455,#377,#378);
#313=AXIS2_PLACEMENT_3D('',#458,#381,#382);
#314=AXIS2_PLACEMENT_3D('',#459,#383,#384);
#315=DIRECTION('axis',(0.,0.,1.));
#316=DIRECTION('refdir',(1.,0.,0.));
#317=DIRECTION('center_axis',(0.,-1.,0.));
#318=DIRECTION('ref_axis',(-1.,0.,0.));
#319=DIRECTION('center_axis',(0.,-1.,0.));
#320=DIRECTION('ref_axis',(-1.,0.,0.));
#321=DIRECTION('',(0.,-1.,0.));
#322=DIRECTION('center_axis',(0.,1.,0.));
#323=DIRECTION('ref_axis',(-1.,0.,0.));
#324=DIRECTION('center_axis',(1.,0.,0.));
#325=DIRECTION('ref_axis',(0.,-1.,0.));
#326=DIRECTION('center_axis',(1.,0.,0.));
#327=DIRECTION('ref_axis',(0.,-1.,0.));
#328=DIRECTION('',(1.,0.,0.));
#329=DIRECTION('center_axis',(-1.,0.,0.));
#330=DIRECTION('ref_axis',(0.,-1.,0.));
#331=DIRECTION('center_axis',(-1.,0.,0.));
#332=DIRECTION('ref_axis',(0.,-1.,0.));
#333=DIRECTION('',(0.,-1.,0.));
#334=DIRECTION('',(0.,0.,1.));
#335=DIRECTION('',(0.,-1.,0.));
#336=DIRECTION('',(0.,0.,1.));
#337=DIRECTION('center_axis',(0.707106781186548,-0.707106781186548,0.));
#338=DIRECTION('ref_axis',(0.707106781186548,0.707106781186548,0.));
#339=DIRECTION('',(0.707106781186547,0.707106781186547,0.));
#340=DIRECTION('',(0.707106781186547,0.707106781186547,0.));
#341=DIRECTION('',(0.,0.,1.));
#342=DIRECTION('center_axis',(0.,1.,0.));
#343=DIRECTION('ref_axis',(-1.,0.,0.));
#344=DIRECTION('',(-1.,0.,0.));
#345=DIRECTION('',(-1.,0.,0.));
#346=DIRECTION('center_axis',(-0.707106781186548,0.707106781186548,0.));
#347=DIRECTION('ref_axis',(-0.707106781186548,-0.707106781186548,0.));
#348=DIRECTION('',(0.707106781186548,0.707106781186548,0.));
#349=DIRECTION('',(0.,0.,1.));
#350=DIRECTION('',(-0.707106781186548,-0.707106781186548,0.));
#351=DIRECTION('',(0.,0.,1.));
#352=DIRECTION('center_axis',(-1.,0.,0.));
#353=DIRECTION('ref_axis',(0.,-1.,0.));
#354=DIRECTION('',(0.,1.,0.));
#355=DIRECTION('',(0.,-1.,0.));
#356=DIRECTION('',(0.,0.,1.));
#357=DIRECTION('center_axis',(0.,1.,0.));
#358=DIRECTION('ref_axis',(-1.,0.,0.));
#359=DIRECTION('',(1.,0.,0.));
#360=DIRECTION('',(-1.,0.,0.));
#361=DIRECTION('',(0.,0.,1.));
#362=DIRECTION('center_axis',(1.,0.,0.));
#363=DIRECTION('ref_axis',(0.,1.,0.));
#364=DIRECTION('',(0.,-1.,0.));
#365=DIRECTION('',(0.,1.,0.));
#366=DIRECTION('',(0.,0.,1.));
#367=DIRECTION('center_axis',(0.,-1.,0.));
#368=DIRECTION('ref_axis',(1.,0.,0.));
#369=DIRECTION('',(1.,0.,0.));
#370=DIRECTION('',(1.,0.,0.));
#371=DIRECTION('',(0.,0.,1.));
#372=DIRECTION('center_axis',(-1.,0.,0.));
#373=DIRECTION('ref_axis',(0.,-1.,0.));
#374=DIRECTION('',(0.,-1.,0.));
#375=DIRECTION('',(0.,-1.,0.));
#376=DIRECTION('',(0.,0.,1.));
#377=DIRECTION('center_axis',(0.,1.,0.));
#378=DIRECTION('ref_axis',(-1.,0.,0.));
#379=DIRECTION('',(-1.,0.,0.));
#380=DIRECTION('',(-1.,0.,0.));
#381=DIRECTION('center_axis',(0.,0.,1.));
#382=DIRECTION('ref_axis',(1.,0.,0.));
#383=DIRECTION('center_axis',(0.,0.,1.));
#384=DIRECTION('ref_axis',(1.,0.,0.));
#385=CARTESIAN_POINT('',(0.,0.,0.));
#386=CARTESIAN_POINT('Origin',(5.00000007450581,4.00000005960464,10.0000001490116));
#387=CARTESIAN_POINT('',(7.10000007450581,4.00000005960464,10.0000001490116));
#388=CARTESIAN_POINT('Origin',(5.00000007450581,4.00000005960464,10.0000001490116));
#389=CARTESIAN_POINT('',(7.10000007450581,0.,10.0000001490116));
#390=CARTESIAN_POINT('',(7.10000007450581,4.00000005960464,10.0000001490116));
#391=CARTESIAN_POINT('Origin',(5.00000007450581,0.,10.0000001490116));
#392=CARTESIAN_POINT('Origin',(28.0000004172325,27.0000004023314,10.0000001490116));
#393=CARTESIAN_POINT('',(28.0000004172325,29.1000004023314,10.0000001490116));
#394=CARTESIAN_POINT('Origin',(28.0000004172325,27.0000004023314,10.0000001490116));
#395=CARTESIAN_POINT('',(32.0000004768372,29.1000004023314,10.0000001490116));
#396=CARTESIAN_POINT('',(28.0000004172325,29.1000004023314,10.0000001490116));
#397=CARTESIAN_POINT('Origin',(32.0000004768372,27.0000004023314,10.0000001490116));
#398=CARTESIAN_POINT('Origin',(28.0000004172325,17.0000002533197,0.));
#399=CARTESIAN_POINT('',(28.0000004172325,17.0000002533197,0.));
#400=CARTESIAN_POINT('',(28.0000004172325,4.00000005960464,0.));
#401=CARTESIAN_POINT('',(28.0000004172325,4.00000005960464,0.));
#402=CARTESIAN_POINT('',(28.0000004172325,4.00000005960464,20.));
#403=CARTESIAN_POINT('',(28.0000004172325,4.00000005960464,0.));
#404=CARTESIAN_POINT('',(28.0000004172325,17.0000002533197,20.));
#405=CARTESIAN_POINT('',(28.0000004172325,4.00000005960464,20.));
#406=CARTESIAN_POINT('',(28.0000004172325,17.0000002533197,0.));
#407=CARTESIAN_POINT('Origin',(15.0000002235174,4.00000005960464,0.));
#408=CARTESIAN_POINT('',(15.0000002235174,4.00000005960464,0.));
#409=CARTESIAN_POINT('',(15.0000002235174,4.00000005960464,0.));
#410=CARTESIAN_POINT('',(15.0000002235174,4.00000005960464,20.));
#411=CARTESIAN_POINT('',(15.0000002235174,4.00000005960464,20.));
#412=CARTESIAN_POINT('',(15.0000002235174,4.00000005960464,0.));
#413=CARTESIAN_POINT('Origin',(28.0000004172325,4.00000005960464,0.));
#414=CARTESIAN_POINT('',(28.0000004172325,4.00000005960464,0.));
#415=CARTESIAN_POINT('',(28.0000004172325,4.00000005960464,20.));
#416=CARTESIAN_POINT('Origin',(28.0000004172325,21.0000003129244,0.));
#417=CARTESIAN_POINT('',(11.0000001639128,4.00000005960464,0.));
#418=CARTESIAN_POINT('',(28.0000004172325,21.0000003129244,0.));
#419=CARTESIAN_POINT('',(11.0000001639128,4.00000005960464,0.));
#420=CARTESIAN_POINT('',(11.0000001639128,4.00000005960464,20.));
#421=CARTESIAN_POINT('',(11.0000001639128,4.00000005960464,0.));
#422=CARTESIAN_POINT('',(28.0000004172325,21.0000003129244,20.));
#423=CARTESIAN_POINT('',(11.0000001639128,4.00000005960464,20.));
#424=CARTESIAN_POINT('',(28.0000004172325,21.0000003129244,0.));
#425=CARTESIAN_POINT('Origin',(28.0000004172325,32.0000004768372,0.));
#426=CARTESIAN_POINT('',(28.0000004172325,32.0000004768372,0.));
#427=CARTESIAN_POINT('',(28.0000004172325,21.0000003129244,0.));
#428=CARTESIAN_POINT('',(28.0000004172325,32.0000004768372,20.));
#429=CARTESIAN_POINT('',(28.0000004172325,21.0000003129244,20.));
#430=CARTESIAN_POINT('',(28.0000004172325,32.0000004768372,0.));
#431=CARTESIAN_POINT('Origin',(32.0000004768372,32.0000004768372,0.));
#432=CARTESIAN_POINT('',(32.0000004768372,32.0000004768372,0.));
#433=CARTESIAN_POINT('',(28.0000004172325,32.0000004768372,0.));
#434=CARTESIAN_POINT('',(32.0000004768372,32.0000004768372,20.));
#435=CARTESIAN_POINT('',(28.0000004172325,32.0000004768372,20.));
#436=CARTESIAN_POINT('',(32.0000004768372,32.0000004768372,0.));
#437=CARTESIAN_POINT('Origin',(32.0000004768372,0.,0.));
#438=CARTESIAN_POINT('',(32.0000004768372,0.,0.));
#439=CARTESIAN_POINT('',(32.0000004768372,32.0000004768372,0.));
#440=CARTESIAN_POINT('',(32.0000004768372,0.,20.));
#441=CARTESIAN_POINT('',(32.0000004768372,32.0000004768372,20.));
#442=CARTESIAN_POINT('',(32.0000004768372,0.,0.));
#443=CARTESIAN_POINT('Origin',(0.,0.,0.));
#444=CARTESIAN_POINT('',(0.,0.,0.));
#445=CARTESIAN_POINT('',(0.,0.,0.));
#446=CARTESIAN_POINT('',(0.,0.,20.));
#447=CARTESIAN_POINT('',(0.,0.,20.));
#448=CARTESIAN_POINT('',(0.,0.,0.));
#449=CARTESIAN_POINT('Origin',(0.,4.00000005960464,0.));
#450=CARTESIAN_POINT('',(0.,4.00000005960464,0.));
#451=CARTESIAN_POINT('',(0.,4.00000005960464,0.));
#452=CARTESIAN_POINT('',(0.,4.00000005960464,20.));
#453=CARTESIAN_POINT('',(0.,4.00000005960464,20.));
#454=CARTESIAN_POINT('',(0.,4.00000005960464,0.));
#455=CARTESIAN_POINT('Origin',(11.0000001639128,4.00000005960464,0.));
#456=CARTESIAN_POINT('',(11.0000001639128,4.00000005960464,0.));
#457=CARTESIAN_POINT('',(11.0000001639128,4.00000005960464,20.));
#458=CARTESIAN_POINT('Origin',(16.0000002384186,16.0000002384186,20.));
#459=CARTESIAN_POINT('Origin',(16.0000002384186,16.0000002384186,0.));
#460=UNCERTAINTY_MEASURE_WITH_UNIT(LENGTH_MEASURE(0.01),#464,
'DISTANCE_ACCURACY_VALUE',
'Maximum model space distance between geometric entities at asserted c
onnectivities');
#461=UNCERTAINTY_MEASURE_WITH_UNIT(LENGTH_MEASURE(0.01),#464,
'DISTANCE_ACCURACY_VALUE',
'Maximum model space distance between geometric entities at asserted c
onnectivities');
#462=(
GEOMETRIC_REPRESENTATION_CONTEXT(3)
GLOBAL_UNCERTAINTY_ASSIGNED_CONTEXT((#460))
GLOBAL_UNIT_ASSIGNED_CONTEXT((#464,#466,#467))
REPRESENTATION_CONTEXT('','3D')
);
#463=(
GEOMETRIC_REPRESENTATION_CONTEXT(3)
GLOBAL_UNCERTAINTY_ASSIGNED_CONTEXT((#461))
GLOBAL_UNIT_ASSIGNED_CONTEXT((#464,#466,#467))
REPRESENTATION_CONTEXT('','3D')
);
#464=(
LENGTH_UNIT()
NAMED_UNIT(*)
SI_UNIT(.MILLI.,.METRE.)
);
#465=(
LENGTH_UNIT()
NAMED_UNIT(*)
SI_UNIT($,.METRE.)
);
#466=(
NAMED_UNIT(*)
PLANE_ANGLE_UNIT()
SI_UNIT($,.RADIAN.)
);
#467=(
NAMED_UNIT(*)
SI_UNIT($,.STERADIAN.)
SOLID_ANGLE_UNIT()
);
#468=SHAPE_DEFINITION_REPRESENTATION(#469,#470);
#469=PRODUCT_DEFINITION_SHAPE('',$,#472);
#470=SHAPE_REPRESENTATION('',(#296),#462);
#471=PRODUCT_DEFINITION_CONTEXT('part definition',#476,'design');
#472=PRODUCT_DEFINITION('Backplate_Big_Bracket',
'Backplate_Big_Bracket v0',#473,#471);
#473=PRODUCT_DEFINITION_FORMATION('',$,#478);
#474=PRODUCT_RELATED_PRODUCT_CATEGORY('Backplate_Big_Bracket v0',
'Backplate_Big_Bracket v0',(#478));
#475=APPLICATION_PROTOCOL_DEFINITION('international standard',
'automotive_design',2009,#476);
#476=APPLICATION_CONTEXT(
'Core Data for Automotive Mechanical Design Process');
#477=PRODUCT_CONTEXT('part definition',#476,'mechanical');
#478=PRODUCT('Backplate_Big_Bracket','Backplate_Big_Bracket v0',$,(#477));
#479=PRESENTATION_STYLE_ASSIGNMENT((#480));
#480=SURFACE_STYLE_USAGE(.BOTH.,#481);
#481=SURFACE_SIDE_STYLE('',(#482));
#482=SURFACE_STYLE_FILL_AREA(#483);
#483=FILL_AREA_STYLE('Steel - Satin',(#484));
#484=FILL_AREA_STYLE_COLOUR('Steel - Satin',#485);
#485=COLOUR_RGB('Steel - Satin',0.627450980392157,0.627450980392157,0.627450980392157);
ENDSEC;
END-ISO-10303-21;
