ISO-10303-21;
HEADER;
/* Generated by software containing ST-Developer
 * from STEP Tools, Inc. (www.steptools.com) 
 */

FILE_DESCRIPTION(
/* description */ (''),
/* implementation_level */ '2;1');

FILE_NAME(
/* name */ 'Backplate_bracket.step',
/* time_stamp */ '2026-08-13T16:17:04-04:00',
/* author */ (''),
/* organization */ (''),
/* preprocessor_version */ 'ST-DEVELOPER v20.1',
/* originating_system */ 'Autodesk Translation Framework v15.8.0.0',
/* authorisation */ '');

FILE_SCHEMA (('AUTOMOTIVE_DESIGN { 1 0 10303 214 3 1 1 }'));
ENDSEC;

DATA;
#10=MECHANICAL_DESIGN_GEOMETRIC_PRESENTATION_REPRESENTATION('',(#13),#393);
#11=SHAPE_REPRESENTATION_RELATIONSHIP('SRR','None',#400,#12);
#12=ADVANCED_BREP_SHAPE_REPRESENTATION('',(#14),#392);
#13=STYLED_ITEM('',(#409),#14);
#14=MANIFOLD_SOLID_BREP('Body1',#237);
#15=CYLINDRICAL_SURFACE('',#254,2.1);
#16=CYLINDRICAL_SURFACE('',#260,2.1);
#17=FACE_BOUND('',#39,.T.);
#18=FACE_BOUND('',#44,.T.);
#19=FACE_BOUND('',#47,.T.);
#20=FACE_BOUND('',#52,.T.);
#21=CIRCLE('',#253,2.1);
#22=CIRCLE('',#255,2.1);
#23=CIRCLE('',#259,2.1);
#24=CIRCLE('',#261,2.1);
#25=FACE_OUTER_BOUND('',#37,.T.);
#26=FACE_OUTER_BOUND('',#38,.T.);
#27=FACE_OUTER_BOUND('',#40,.T.);
#28=FACE_OUTER_BOUND('',#41,.T.);
#29=FACE_OUTER_BOUND('',#42,.T.);
#30=FACE_OUTER_BOUND('',#43,.T.);
#31=FACE_OUTER_BOUND('',#45,.T.);
#32=FACE_OUTER_BOUND('',#46,.T.);
#33=FACE_OUTER_BOUND('',#48,.T.);
#34=FACE_OUTER_BOUND('',#49,.T.);
#35=FACE_OUTER_BOUND('',#50,.T.);
#36=FACE_OUTER_BOUND('',#51,.T.);
#37=EDGE_LOOP('',(#155,#156,#157,#158));
#38=EDGE_LOOP('',(#159,#160,#161,#162));
#39=EDGE_LOOP('',(#163));
#40=EDGE_LOOP('',(#164,#165,#166,#167));
#41=EDGE_LOOP('',(#168,#169,#170,#171,#172));
#42=EDGE_LOOP('',(#173,#174,#175,#176));
#43=EDGE_LOOP('',(#177,#178,#179,#180));
#44=EDGE_LOOP('',(#181));
#45=EDGE_LOOP('',(#182,#183,#184,#185));
#46=EDGE_LOOP('',(#186,#187,#188,#189,#190));
#47=EDGE_LOOP('',(#191));
#48=EDGE_LOOP('',(#192,#193,#194,#195,#196,#197,#198));
#49=EDGE_LOOP('',(#199,#200,#201,#202));
#50=EDGE_LOOP('',(#203,#204,#205,#206,#207,#208,#209));
#51=EDGE_LOOP('',(#210,#211,#212,#213));
#52=EDGE_LOOP('',(#214));
#53=LINE('',#331,#79);
#54=LINE('',#333,#80);
#55=LINE('',#335,#81);
#56=LINE('',#336,#82);
#57=LINE('',#339,#83);
#58=LINE('',#341,#84);
#59=LINE('',#342,#85);
#60=LINE('',#347,#86);
#61=LINE('',#352,#87);
#62=LINE('',#354,#88);
#63=LINE('',#355,#89);
#64=LINE('',#356,#90);
#65=LINE('',#359,#91);
#66=LINE('',#360,#92);
#67=LINE('',#363,#93);
#68=LINE('',#365,#94);
#69=LINE('',#366,#95);
#70=LINE('',#371,#96);
#71=LINE('',#376,#97);
#72=LINE('',#377,#98);
#73=LINE('',#378,#99);
#74=LINE('',#381,#100);
#75=LINE('',#382,#101);
#76=LINE('',#385,#102);
#77=LINE('',#386,#103);
#78=LINE('',#388,#104);
#79=VECTOR('',#271,10.);
#80=VECTOR('',#272,10.);
#81=VECTOR('',#273,10.);
#82=VECTOR('',#274,10.);
#83=VECTOR('',#277,10.);
#84=VECTOR('',#278,10.);
#85=VECTOR('',#279,10.);
#86=VECTOR('',#284,2.1);
#87=VECTOR('',#289,10.);
#88=VECTOR('',#290,10.);
#89=VECTOR('',#291,10.);
#90=VECTOR('',#292,10.);
#91=VECTOR('',#295,10.);
#92=VECTOR('',#296,10.);
#93=VECTOR('',#299,10.);
#94=VECTOR('',#300,10.);
#95=VECTOR('',#301,10.);
#96=VECTOR('',#306,2.1);
#97=VECTOR('',#311,10.);
#98=VECTOR('',#312,10.);
#99=VECTOR('',#313,10.);
#100=VECTOR('',#316,10.);
#101=VECTOR('',#317,10.);
#102=VECTOR('',#320,10.);
#103=VECTOR('',#321,10.);
#104=VECTOR('',#324,10.);
#105=VERTEX_POINT('',#329);
#106=VERTEX_POINT('',#330);
#107=VERTEX_POINT('',#332);
#108=VERTEX_POINT('',#334);
#109=VERTEX_POINT('',#338);
#110=VERTEX_POINT('',#340);
#111=VERTEX_POINT('',#343);
#112=VERTEX_POINT('',#346);
#113=VERTEX_POINT('',#350);
#114=VERTEX_POINT('',#351);
#115=VERTEX_POINT('',#353);
#116=VERTEX_POINT('',#358);
#117=VERTEX_POINT('',#362);
#118=VERTEX_POINT('',#364);
#119=VERTEX_POINT('',#367);
#120=VERTEX_POINT('',#370);
#121=VERTEX_POINT('',#374);
#122=VERTEX_POINT('',#375);
#123=VERTEX_POINT('',#380);
#124=VERTEX_POINT('',#384);
#125=EDGE_CURVE('',#105,#106,#53,.T.);
#126=EDGE_CURVE('',#107,#105,#54,.T.);
#127=EDGE_CURVE('',#108,#107,#55,.T.);
#128=EDGE_CURVE('',#106,#108,#56,.T.);
#129=EDGE_CURVE('',#108,#109,#57,.T.);
#130=EDGE_CURVE('',#110,#109,#58,.T.);
#131=EDGE_CURVE('',#106,#110,#59,.T.);
#132=EDGE_CURVE('',#111,#111,#21,.T.);
#133=EDGE_CURVE('',#111,#112,#60,.T.);
#134=EDGE_CURVE('',#112,#112,#22,.T.);
#135=EDGE_CURVE('',#113,#114,#61,.T.);
#136=EDGE_CURVE('',#114,#115,#62,.T.);
#137=EDGE_CURVE('',#109,#115,#63,.T.);
#138=EDGE_CURVE('',#113,#108,#64,.T.);
#139=EDGE_CURVE('',#115,#116,#65,.T.);
#140=EDGE_CURVE('',#116,#110,#66,.T.);
#141=EDGE_CURVE('',#105,#117,#67,.T.);
#142=EDGE_CURVE('',#117,#118,#68,.T.);
#143=EDGE_CURVE('',#118,#107,#69,.T.);
#144=EDGE_CURVE('',#119,#119,#23,.T.);
#145=EDGE_CURVE('',#119,#120,#70,.T.);
#146=EDGE_CURVE('',#120,#120,#24,.T.);
#147=EDGE_CURVE('',#121,#122,#71,.T.);
#148=EDGE_CURVE('',#122,#116,#72,.T.);
#149=EDGE_CURVE('',#121,#114,#73,.T.);
#150=EDGE_CURVE('',#123,#121,#74,.T.);
#151=EDGE_CURVE('',#123,#118,#75,.T.);
#152=EDGE_CURVE('',#124,#123,#76,.T.);
#153=EDGE_CURVE('',#124,#117,#77,.T.);
#154=EDGE_CURVE('',#122,#124,#78,.T.);
#155=ORIENTED_EDGE('',*,*,#125,.F.);
#156=ORIENTED_EDGE('',*,*,#126,.F.);
#157=ORIENTED_EDGE('',*,*,#127,.F.);
#158=ORIENTED_EDGE('',*,*,#128,.F.);
#159=ORIENTED_EDGE('',*,*,#128,.T.);
#160=ORIENTED_EDGE('',*,*,#129,.T.);
#161=ORIENTED_EDGE('',*,*,#130,.F.);
#162=ORIENTED_EDGE('',*,*,#131,.F.);
#163=ORIENTED_EDGE('',*,*,#132,.T.);
#164=ORIENTED_EDGE('',*,*,#132,.F.);
#165=ORIENTED_EDGE('',*,*,#133,.T.);
#166=ORIENTED_EDGE('',*,*,#134,.F.);
#167=ORIENTED_EDGE('',*,*,#133,.F.);
#168=ORIENTED_EDGE('',*,*,#135,.T.);
#169=ORIENTED_EDGE('',*,*,#136,.T.);
#170=ORIENTED_EDGE('',*,*,#137,.F.);
#171=ORIENTED_EDGE('',*,*,#129,.F.);
#172=ORIENTED_EDGE('',*,*,#138,.F.);
#173=ORIENTED_EDGE('',*,*,#130,.T.);
#174=ORIENTED_EDGE('',*,*,#137,.T.);
#175=ORIENTED_EDGE('',*,*,#139,.T.);
#176=ORIENTED_EDGE('',*,*,#140,.T.);
#177=ORIENTED_EDGE('',*,*,#126,.T.);
#178=ORIENTED_EDGE('',*,*,#141,.T.);
#179=ORIENTED_EDGE('',*,*,#142,.T.);
#180=ORIENTED_EDGE('',*,*,#143,.T.);
#181=ORIENTED_EDGE('',*,*,#144,.T.);
#182=ORIENTED_EDGE('',*,*,#144,.F.);
#183=ORIENTED_EDGE('',*,*,#145,.T.);
#184=ORIENTED_EDGE('',*,*,#146,.T.);
#185=ORIENTED_EDGE('',*,*,#145,.F.);
#186=ORIENTED_EDGE('',*,*,#147,.T.);
#187=ORIENTED_EDGE('',*,*,#148,.T.);
#188=ORIENTED_EDGE('',*,*,#139,.F.);
#189=ORIENTED_EDGE('',*,*,#136,.F.);
#190=ORIENTED_EDGE('',*,*,#149,.F.);
#191=ORIENTED_EDGE('',*,*,#134,.T.);
#192=ORIENTED_EDGE('',*,*,#150,.T.);
#193=ORIENTED_EDGE('',*,*,#149,.T.);
#194=ORIENTED_EDGE('',*,*,#135,.F.);
#195=ORIENTED_EDGE('',*,*,#138,.T.);
#196=ORIENTED_EDGE('',*,*,#127,.T.);
#197=ORIENTED_EDGE('',*,*,#143,.F.);
#198=ORIENTED_EDGE('',*,*,#151,.F.);
#199=ORIENTED_EDGE('',*,*,#152,.T.);
#200=ORIENTED_EDGE('',*,*,#151,.T.);
#201=ORIENTED_EDGE('',*,*,#142,.F.);
#202=ORIENTED_EDGE('',*,*,#153,.F.);
#203=ORIENTED_EDGE('',*,*,#154,.T.);
#204=ORIENTED_EDGE('',*,*,#153,.T.);
#205=ORIENTED_EDGE('',*,*,#141,.F.);
#206=ORIENTED_EDGE('',*,*,#125,.T.);
#207=ORIENTED_EDGE('',*,*,#131,.T.);
#208=ORIENTED_EDGE('',*,*,#140,.F.);
#209=ORIENTED_EDGE('',*,*,#148,.F.);
#210=ORIENTED_EDGE('',*,*,#154,.F.);
#211=ORIENTED_EDGE('',*,*,#147,.F.);
#212=ORIENTED_EDGE('',*,*,#150,.F.);
#213=ORIENTED_EDGE('',*,*,#152,.F.);
#214=ORIENTED_EDGE('',*,*,#146,.F.);
#215=PLANE('',#251);
#216=PLANE('',#252);
#217=PLANE('',#256);
#218=PLANE('',#257);
#219=PLANE('',#258);
#220=PLANE('',#262);
#221=PLANE('',#263);
#222=PLANE('',#264);
#223=PLANE('',#265);
#224=PLANE('',#266);
#225=ADVANCED_FACE('',(#25),#215,.T.);
#226=ADVANCED_FACE('',(#26,#17),#216,.T.);
#227=ADVANCED_FACE('',(#27),#15,.F.);
#228=ADVANCED_FACE('',(#28),#217,.T.);
#229=ADVANCED_FACE('',(#29),#218,.T.);
#230=ADVANCED_FACE('',(#30,#18),#219,.T.);
#231=ADVANCED_FACE('',(#31),#16,.F.);
#232=ADVANCED_FACE('',(#32,#19),#220,.T.);
#233=ADVANCED_FACE('',(#33),#221,.T.);
#234=ADVANCED_FACE('',(#34),#222,.T.);
#235=ADVANCED_FACE('',(#35),#223,.T.);
#236=ADVANCED_FACE('',(#36,#20),#224,.F.);
#237=CLOSED_SHELL('',(#225,#226,#227,#228,#229,#230,#231,#232,#233,#234,
#235,#236));
#238=DERIVED_UNIT_ELEMENT(#240,1.);
#239=DERIVED_UNIT_ELEMENT(#395,-3.);
#240=(
MASS_UNIT()
NAMED_UNIT(*)
SI_UNIT(.KILO.,.GRAM.)
);
#241=DERIVED_UNIT((#238,#239));
#242=MEASURE_REPRESENTATION_ITEM('density measure',
POSITIVE_RATIO_MEASURE(7850.),#241);
#243=PROPERTY_DEFINITION_REPRESENTATION(#248,#245);
#244=PROPERTY_DEFINITION_REPRESENTATION(#249,#246);
#245=REPRESENTATION('material name',(#247),#392);
#246=REPRESENTATION('density',(#242),#392);
#247=DESCRIPTIVE_REPRESENTATION_ITEM('Steel','Steel');
#248=PROPERTY_DEFINITION('material property','material name',#402);
#249=PROPERTY_DEFINITION('material property','density of part',#402);
#250=AXIS2_PLACEMENT_3D('',#327,#267,#268);
#251=AXIS2_PLACEMENT_3D('',#328,#269,#270);
#252=AXIS2_PLACEMENT_3D('',#337,#275,#276);
#253=AXIS2_PLACEMENT_3D('',#344,#280,#281);
#254=AXIS2_PLACEMENT_3D('',#345,#282,#283);
#255=AXIS2_PLACEMENT_3D('',#348,#285,#286);
#256=AXIS2_PLACEMENT_3D('',#349,#287,#288);
#257=AXIS2_PLACEMENT_3D('',#357,#293,#294);
#258=AXIS2_PLACEMENT_3D('',#361,#297,#298);
#259=AXIS2_PLACEMENT_3D('',#368,#302,#303);
#260=AXIS2_PLACEMENT_3D('',#369,#304,#305);
#261=AXIS2_PLACEMENT_3D('',#372,#307,#308);
#262=AXIS2_PLACEMENT_3D('',#373,#309,#310);
#263=AXIS2_PLACEMENT_3D('',#379,#314,#315);
#264=AXIS2_PLACEMENT_3D('',#383,#318,#319);
#265=AXIS2_PLACEMENT_3D('',#387,#322,#323);
#266=AXIS2_PLACEMENT_3D('',#389,#325,#326);
#267=DIRECTION('axis',(0.,0.,1.));
#268=DIRECTION('refdir',(1.,0.,0.));
#269=DIRECTION('center_axis',(0.,-0.658504615657957,0.752576687891119));
#270=DIRECTION('ref_axis',(-8.24553232302804E-32,-0.752576687891119,-0.658504615657957));
#271=DIRECTION('',(8.24553232302804E-32,0.752576687891119,0.658504615657957));
#272=DIRECTION('',(-1.,0.,0.));
#273=DIRECTION('',(-8.24553232302804E-32,-0.752576687891119,-0.658504615657957));
#274=DIRECTION('',(1.,0.,0.));
#275=DIRECTION('center_axis',(0.,-1.,0.));
#276=DIRECTION('ref_axis',(1.,0.,0.));
#277=DIRECTION('',(0.,0.,1.));
#278=DIRECTION('',(1.,0.,0.));
#279=DIRECTION('',(0.,0.,1.));
#280=DIRECTION('center_axis',(0.,1.,0.));
#281=DIRECTION('ref_axis',(1.,0.,0.));
#282=DIRECTION('center_axis',(0.,1.,0.));
#283=DIRECTION('ref_axis',(1.,0.,0.));
#284=DIRECTION('',(0.,1.,0.));
#285=DIRECTION('center_axis',(2.46716227694479E-16,-1.,0.));
#286=DIRECTION('ref_axis',(1.,0.,0.));
#287=DIRECTION('center_axis',(0.999999999999999,-3.35276126306461E-8,0.));
#288=DIRECTION('ref_axis',(3.35276126306461E-8,0.999999999999999,0.));
#289=DIRECTION('',(0.,1.,0.));
#290=DIRECTION('',(0.,0.,1.));
#291=DIRECTION('',(3.35276126306461E-8,0.999999999999999,0.));
#292=DIRECTION('',(0.,0.,1.));
#293=DIRECTION('center_axis',(0.,0.,1.));
#294=DIRECTION('ref_axis',(1.,0.,0.));
#295=DIRECTION('',(-1.,0.,0.));
#296=DIRECTION('',(3.85185988877447E-33,-1.,0.));
#297=DIRECTION('center_axis',(0.,0.,1.));
#298=DIRECTION('ref_axis',(1.,0.,0.));
#299=DIRECTION('',(-1.09564014614029E-31,-1.,0.));
#300=DIRECTION('',(1.,0.,0.));
#301=DIRECTION('',(0.,1.,0.));
#302=DIRECTION('center_axis',(0.,0.,-1.));
#303=DIRECTION('ref_axis',(1.,0.,0.));
#304=DIRECTION('center_axis',(0.,0.,1.));
#305=DIRECTION('ref_axis',(1.,0.,0.));
#306=DIRECTION('',(0.,0.,-1.));
#307=DIRECTION('center_axis',(0.,0.,-1.));
#308=DIRECTION('ref_axis',(1.,0.,0.));
#309=DIRECTION('center_axis',(-2.46716227694479E-16,1.,0.));
#310=DIRECTION('ref_axis',(-1.,-2.46716227694479E-16,0.));
#311=DIRECTION('',(-1.,-2.46716227694479E-16,0.));
#312=DIRECTION('',(0.,0.,1.));
#313=DIRECTION('',(0.,0.,1.));
#314=DIRECTION('center_axis',(1.,0.,0.));
#315=DIRECTION('ref_axis',(0.,1.,0.));
#316=DIRECTION('',(0.,1.,0.));
#317=DIRECTION('',(0.,0.,1.));
#318=DIRECTION('center_axis',(0.,-1.,0.));
#319=DIRECTION('ref_axis',(1.,0.,0.));
#320=DIRECTION('',(1.,0.,0.));
#321=DIRECTION('',(0.,0.,1.));
#322=DIRECTION('center_axis',(-1.,1.09564014614029E-31,0.));
#323=DIRECTION('ref_axis',(-1.09564014614029E-31,-1.,0.));
#324=DIRECTION('',(-1.09564014614029E-31,-1.,0.));
#325=DIRECTION('center_axis',(0.,0.,1.));
#326=DIRECTION('ref_axis',(1.,0.,0.));
#327=CARTESIAN_POINT('',(0.,0.,0.));
#328=CARTESIAN_POINT('Origin',(1.53389620459641E-30,14.,7.93750008223683));
#329=CARTESIAN_POINT('',(1.04085813883328E-30,9.5,4.));
#330=CARTESIAN_POINT('',(1.53389620459641E-30,14.,7.93750008223683));
#331=CARTESIAN_POINT('',(1.04085813883328E-30,9.5,4.));
#332=CARTESIAN_POINT('',(9.,9.5,4.));
#333=CARTESIAN_POINT('',(2.25,9.5,4.));
#334=CARTESIAN_POINT('',(9.,14.,7.93750008223683));
#335=CARTESIAN_POINT('',(9.,9.5,4.));
#336=CARTESIAN_POINT('',(7.66948102298206E-31,14.,7.93750008223683));
#337=CARTESIAN_POINT('Origin',(0.,14.,4.));
#338=CARTESIAN_POINT('',(9.,14.,18.));
#339=CARTESIAN_POINT('',(9.,14.,4.));
#340=CARTESIAN_POINT('',(0.,14.,18.));
#341=CARTESIAN_POINT('',(9.,14.,18.));
#342=CARTESIAN_POINT('',(1.54074395550979E-32,14.,4.));
#343=CARTESIAN_POINT('',(2.4,14.,14.));
#344=CARTESIAN_POINT('Origin',(4.5,14.,14.));
#345=CARTESIAN_POINT('Origin',(4.5,14.,14.));
#346=CARTESIAN_POINT('',(2.4,18.,14.));
#347=CARTESIAN_POINT('',(2.4,14.,14.));
#348=CARTESIAN_POINT('Origin',(4.5,18.,14.));
#349=CARTESIAN_POINT('Origin',(9.,14.,4.));
#350=CARTESIAN_POINT('',(9.,14.,4.));
#351=CARTESIAN_POINT('',(9.,18.,4.));
#352=CARTESIAN_POINT('',(9.,0.,4.));
#353=CARTESIAN_POINT('',(9.00000013411045,18.,18.));
#354=CARTESIAN_POINT('',(9.00000013411045,18.,4.));
#355=CARTESIAN_POINT('',(9.00000013411045,18.,18.));
#356=CARTESIAN_POINT('',(9.,14.,4.));
#357=CARTESIAN_POINT('Origin',(4.50000006705523,16.,18.));
#358=CARTESIAN_POINT('',(0.,18.,18.));
#359=CARTESIAN_POINT('',(0.,18.,18.));
#360=CARTESIAN_POINT('',(1.54074395550979E-32,14.,18.));
#361=CARTESIAN_POINT('Origin',(4.5,9.,4.));
#362=CARTESIAN_POINT('',(0.,0.,4.));
#363=CARTESIAN_POINT('',(1.97215226305253E-30,18.,4.));
#364=CARTESIAN_POINT('',(9.,0.,4.));
#365=CARTESIAN_POINT('',(0.,0.,4.));
#366=CARTESIAN_POINT('',(9.,0.,4.));
#367=CARTESIAN_POINT('',(2.4,4.,4.));
#368=CARTESIAN_POINT('Origin',(4.5,4.,4.));
#369=CARTESIAN_POINT('Origin',(4.5,4.,0.));
#370=CARTESIAN_POINT('',(2.4,4.,0.));
#371=CARTESIAN_POINT('',(2.4,4.,0.));
#372=CARTESIAN_POINT('Origin',(4.5,4.,0.));
#373=CARTESIAN_POINT('Origin',(9.,18.,0.));
#374=CARTESIAN_POINT('',(9.,18.,0.));
#375=CARTESIAN_POINT('',(1.97215226305253E-30,18.,0.));
#376=CARTESIAN_POINT('',(9.,18.,0.));
#377=CARTESIAN_POINT('',(1.97215226305253E-30,18.,0.));
#378=CARTESIAN_POINT('',(9.,18.,0.));
#379=CARTESIAN_POINT('Origin',(9.,0.,0.));
#380=CARTESIAN_POINT('',(9.,0.,0.));
#381=CARTESIAN_POINT('',(9.,0.,0.));
#382=CARTESIAN_POINT('',(9.,0.,0.));
#383=CARTESIAN_POINT('Origin',(0.,0.,0.));
#384=CARTESIAN_POINT('',(0.,0.,0.));
#385=CARTESIAN_POINT('',(0.,0.,0.));
#386=CARTESIAN_POINT('',(0.,0.,0.));
#387=CARTESIAN_POINT('Origin',(1.97215226305253E-30,18.,0.));
#388=CARTESIAN_POINT('',(1.97215226305253E-30,18.,0.));
#389=CARTESIAN_POINT('Origin',(4.5,9.,0.));
#390=UNCERTAINTY_MEASURE_WITH_UNIT(LENGTH_MEASURE(0.01),#394,
'DISTANCE_ACCURACY_VALUE',
'Maximum model space distance between geometric entities at asserted c
onnectivities');
#391=UNCERTAINTY_MEASURE_WITH_UNIT(LENGTH_MEASURE(0.01),#394,
'DISTANCE_ACCURACY_VALUE',
'Maximum model space distance between geometric entities at asserted c
onnectivities');
#392=(
GEOMETRIC_REPRESENTATION_CONTEXT(3)
GLOBAL_UNCERTAINTY_ASSIGNED_CONTEXT((#390))
GLOBAL_UNIT_ASSIGNED_CONTEXT((#394,#396,#397))
REPRESENTATION_CONTEXT('','3D')
);
#393=(
GEOMETRIC_REPRESENTATION_CONTEXT(3)
GLOBAL_UNCERTAINTY_ASSIGNED_CONTEXT((#391))
GLOBAL_UNIT_ASSIGNED_CONTEXT((#394,#396,#397))
REPRESENTATION_CONTEXT('','3D')
);
#394=(
LENGTH_UNIT()
NAMED_UNIT(*)
SI_UNIT(.MILLI.,.METRE.)
);
#395=(
LENGTH_UNIT()
NAMED_UNIT(*)
SI_UNIT($,.METRE.)
);
#396=(
NAMED_UNIT(*)
PLANE_ANGLE_UNIT()
SI_UNIT($,.RADIAN.)
);
#397=(
NAMED_UNIT(*)
SI_UNIT($,.STERADIAN.)
SOLID_ANGLE_UNIT()
);
#398=SHAPE_DEFINITION_REPRESENTATION(#399,#400);
#399=PRODUCT_DEFINITION_SHAPE('',$,#402);
#400=SHAPE_REPRESENTATION('',(#250),#392);
#401=PRODUCT_DEFINITION_CONTEXT('part definition',#406,'design');
#402=PRODUCT_DEFINITION('Backplate_bracket','Backplate_bracket v1',#403,
#401);
#403=PRODUCT_DEFINITION_FORMATION('',$,#408);
#404=PRODUCT_RELATED_PRODUCT_CATEGORY('Backplate_bracket v1',
'Backplate_bracket v1',(#408));
#405=APPLICATION_PROTOCOL_DEFINITION('international standard',
'automotive_design',2009,#406);
#406=APPLICATION_CONTEXT(
'Core Data for Automotive Mechanical Design Process');
#407=PRODUCT_CONTEXT('part definition',#406,'mechanical');
#408=PRODUCT('Backplate_bracket','Backplate_bracket v1',$,(#407));
#409=PRESENTATION_STYLE_ASSIGNMENT((#410));
#410=SURFACE_STYLE_USAGE(.BOTH.,#411);
#411=SURFACE_SIDE_STYLE('',(#412));
#412=SURFACE_STYLE_FILL_AREA(#413);
#413=FILL_AREA_STYLE('Steel - Satin',(#414));
#414=FILL_AREA_STYLE_COLOUR('Steel - Satin',#415);
#415=COLOUR_RGB('Steel - Satin',0.627450980392157,0.627450980392157,0.627450980392157);
ENDSEC;
END-ISO-10303-21;
